<svg version="1.0" xmlns="http://www.w3.org/2000/svg"
     width="900.000000pt" height="600.000000pt" viewBox="0 0 900.000000 600.000000"
     preserveAspectRatio="xMidYMid meet">
    <g transform="translate(0.000000,600.000000) scale(0.100000,-0.100000)"
       fill="#000000" stroke="none">
        <path d="M3669 5984 c-144 -26 -275 -82 -426 -183 -210 -141 -326 -337 -379
-641 -12 -73 -15 -135 -11 -265 4 -149 8 -185 35 -287 94 -353 303 -705 523
-881 291 -233 594 -248 871 -43 215 160 323 404 358 811 39 458 -35 845 -211
1115 -103 157 -206 250 -354 321 -144 69 -245 83 -406 53z"/>
        <path d="M5673 5949 c-300 -30 -577 -240 -796 -602 -161 -264 -212 -567 -166
-972 27 -235 78 -371 199 -534 296 -398 701 -413 1056 -39 90 96 150 174 236
310 152 242 223 422 275 693 24 124 29 501 9 588 -84 358 -431 595 -813 556z"/>
        <path d="M1893 4559 c-258 -43 -502 -296 -570 -590 -26 -116 -24 -383 6 -519
56 -263 207 -606 337 -769 190 -236 468 -381 733 -381 151 0 272 34 442 125
260 139 394 364 392 660 -1 287 -165 741 -369 1026 -100 139 -264 293 -369
346 -176 90 -424 132 -602 102z"/>
        <path d="M6885 4404 c-156 -35 -307 -122 -463 -269 -162 -153 -267 -314 -388
-595 -97 -227 -117 -311 -117 -490 0 -195 28 -316 114 -497 53 -112 109 -166
240 -232 144 -72 241 -94 383 -89 174 7 253 43 439 198 334 281 543 682 588
1130 21 207 -16 396 -103 534 -46 73 -153 182 -218 221 -139 84 -333 121 -475
89z"/>
        <path d="M4335 3494 c-194 -22 -364 -63 -473 -116 -78 -37 -182 -133 -250
-231 -41 -60 -212 -369 -212 -384 0 -12 -62 -93 -101 -132 -65 -65 -150 -121
-294 -196 -161 -84 -205 -111 -325 -199 -222 -163 -411 -397 -501 -621 -64
-161 -73 -211 -73 -430 -1 -226 10 -284 83 -441 102 -216 239 -355 486 -492
298 -165 482 -225 736 -238 205 -11 316 9 699 128 209 65 233 70 341 75 140 7
209 -6 464 -82 252 -76 372 -103 508 -116 368 -36 784 102 1095 360 197 164
336 479 349 792 9 217 -24 378 -115 553 -38 73 -66 109 -152 196 -160 161
-334 285 -615 439 -161 89 -204 138 -451 519 -81 125 -166 249 -188 275 -111
133 -344 250 -601 301 -184 37 -318 50 -410 40z"/>
    </g>
</svg>